<?xml version="1.0" encoding="UTF-8"?>
<svg width="32" height="32" viewBox="0 0 32 32" fill="none" xmlns="http://www.w3.org/2000/svg">
  <rect width="32" height="32" rx="6" fill="#005DAA"/>
  <!-- Gas Pump Icon -->
  <g transform="translate(6, 4)">
    <path d="M16 24H4c-1.1 0-2-.9-2-2V4c0-1.1.9-2 2-2h12c1.1 0 2 .9 2 2v18c0 1.1-.9 2-2 2z" fill="white"/>
    <path d="M20 8l2-2v12c0 1.1-.9 2-2 2s-2-.9-2-2V8h2z" fill="white"/>
    <rect x="6" y="6" width="8" height="4" rx="1" fill="#005DAA"/>
    <circle cx="10" cy="18" r="3" fill="#005DAA"/>
  </g>
</svg>